# xmcd
#
# Track frame offsets: 
#        200
#        12000
#        26675
#        50695
#        68537
#        89012
#        106692
#        127072
#        146560
#        162777
#        183122
#        200757
#        217947
#
# Disc length: 3316 seconds
#
# Revision: 2
# Processed by: cddbd v1.5.1PL2 Copyright (c) Steve Scherf et al.
# Submitted via: ExactAudioCopy v0.95b4
#
DISCID=af0cf20d
DTITLE=Marva Wright - Heartbreakin' Woman
DYEAR=1998
DGENRE=R&B
TTITLE0=Heartbreakin'  Woman
TTITLE1=The Sky Is Crying
TTITLE2=You Don't Miss Your Water
TTITLE3=Ain't Nothin' You Can Do
TTITLE4=Nothing Takes The Place Of You
TTITLE5=Feel Like Breaking Up Somebody's Home
TTITLE6=Walk Around Heaven All Day
TTITLE7=Bluesiana Mama
TTITLE8=Let's Make Love
TTITLE9=St. James Infirmary
TTITLE10=Built For Comfort
TTITLE11=Born Under A Bad Sign
TTITLE12=Since You Came Into My Life
EXTD=YEAR: 1991  ID3G:   0
EXTT0=
EXTT1=
EXTT2=
EXTT3=
EXTT4=
EXTT5=
EXTT6=
EXTT7=
EXTT8=
EXTT9=
EXTT10=
EXTT11=
EXTT12=
PLAYORDER=
